<svg width="287.35" height="36.85" viewBox="0 0 287.35 36.85" xmlns="http://www.w3.org/2000/svg"><g id="svgGroup" stroke-linecap="round" fill-rule="evenodd" font-size="9pt" stroke="transparent" stroke-width="0.35mm" fill="#c4c4c4" style="stroke:transparent;stroke-width:0.35mm;fill:#c4c4c4"><path d="M 82.7 4.3 L 82.7 4 A 8.197 8.197 0 0 1 83.888 2.884 A 6.507 6.507 0 0 1 85.1 2.15 A 6.725 6.725 0 0 1 86.467 1.682 A 5.472 5.472 0 0 1 87.65 1.55 A 4.424 4.424 0 0 1 90.858 2.858 A 5.392 5.392 0 0 1 90.9 2.9 Q 92.018 4.018 92.21 6.062 A 9.496 9.496 0 0 1 92.25 6.95 A 13.423 13.423 0 0 1 92.194 8.129 Q 92.1 9.188 91.85 10.5 Q 91.45 12.6 90.9 14.9 Q 90.35 17.2 89.8 19.2 A 17.303 17.303 0 0 1 91.221 16.912 A 21.685 21.685 0 0 1 92.325 15.525 Q 93.9 13.7 95.925 12.5 A 8.486 8.486 0 0 1 98.692 11.436 A 7.865 7.865 0 0 1 100.15 11.3 A 6.233 6.233 0 0 1 101.362 11.409 Q 102.027 11.541 102.524 11.834 A 2.701 2.701 0 0 1 103.525 12.85 A 6.43 6.43 0 0 1 104.195 14.648 Q 104.362 15.41 104.393 16.289 A 11.568 11.568 0 0 1 104.4 16.7 A 22.254 22.254 0 0 1 104.224 19.433 A 27.54 27.54 0 0 1 103.95 21.175 Q 103.5 23.55 103.05 25.725 Q 102.738 27.231 102.643 28.39 A 11.694 11.694 0 0 0 102.6 29.35 A 5.275 5.275 0 0 0 102.644 30.064 Q 102.752 30.853 103.128 31.193 A 1.035 1.035 0 0 0 103.85 31.45 Q 104.4 31.45 104.825 31.125 Q 105.25 30.8 105.45 30.4 L 105.8 30.65 Q 105.8 32.6 104.85 33.95 Q 103.9 35.3 102.425 36 A 7.01 7.01 0 0 1 99.594 36.698 A 6.836 6.836 0 0 1 99.4 36.7 Q 97.35 36.7 95.7 35.325 A 4.187 4.187 0 0 1 94.45 33.484 Q 94.2 32.791 94.106 31.936 A 9.985 9.985 0 0 1 94.05 30.85 A 14.914 14.914 0 0 1 94.192 28.846 A 19.709 19.709 0 0 1 94.525 27.05 Q 95 25 95.45 23.075 Q 95.762 21.742 95.857 20.709 A 9.331 9.331 0 0 0 95.9 19.85 A 3.567 3.567 0 0 0 95.854 19.251 Q 95.671 18.181 94.754 18.151 A 1.638 1.638 0 0 0 94.7 18.15 A 2.625 2.625 0 0 0 93.755 18.339 Q 93.376 18.485 92.976 18.744 A 6.657 6.657 0 0 0 92.3 19.25 A 10.128 10.128 0 0 0 90.608 21.104 A 12.283 12.283 0 0 0 90.025 22 A 11.357 11.357 0 0 0 89.189 23.714 A 8.864 8.864 0 0 0 88.75 25.25 Q 88.664 25.594 88.652 26.049 A 5.71 5.71 0 0 0 88.65 26.2 Q 88.65 27.45 89.025 28.6 A 7.204 7.204 0 0 1 89.3 29.808 Q 89.386 30.404 89.398 31.078 A 12.459 12.459 0 0 1 89.4 31.3 A 7.291 7.291 0 0 1 89.186 33.107 A 5.531 5.531 0 0 1 88.2 35.15 A 3.876 3.876 0 0 1 85.785 36.597 A 5.942 5.942 0 0 1 84.65 36.7 A 5.157 5.157 0 0 1 83.051 36.463 A 4.183 4.183 0 0 1 81.2 35.25 A 4.869 4.869 0 0 1 80.123 33.191 Q 79.9 32.335 79.9 31.3 A 13.697 13.697 0 0 1 79.934 30.376 Q 80.004 29.344 80.219 27.972 A 44.033 44.033 0 0 1 80.25 27.775 A 112.026 112.026 0 0 1 80.644 25.488 A 149.986 149.986 0 0 1 81.125 22.975 Q 81.65 20.35 82.15 17.625 Q 82.65 14.9 83 12.35 A 43.287 43.287 0 0 0 83.213 10.522 Q 83.35 9.069 83.35 7.85 Q 83.35 5.804 82.897 4.7 A 3.093 3.093 0 0 0 82.7 4.3 Z M 183.9 36.85 Q 181.95 36.75 180.525 35.475 Q 179.1 34.2 178.55 31 A 11.465 11.465 0 0 0 181.084 29.835 Q 182.207 29.152 183.325 28.175 A 42.834 42.834 0 0 0 186.274 25.328 A 51.894 51.894 0 0 0 188.025 23.375 Q 190.35 20.65 192.6 18.05 A 6.685 6.685 0 0 0 191.825 17.631 A 4.971 4.971 0 0 0 191.05 17.35 Q 190.3 17.15 189.65 17.15 A 4.086 4.086 0 0 0 188.711 17.252 A 2.818 2.818 0 0 0 187.475 17.875 Q 186.65 18.6 186.65 19.8 Q 186.65 20.635 187.111 21.642 A 8.212 8.212 0 0 0 187.45 22.3 A 16.207 16.207 0 0 1 186.596 22.42 A 14.012 14.012 0 0 1 186.3 22.45 Q 185.75 22.5 185.3 22.5 A 9.541 9.541 0 0 1 183.575 22.355 Q 181.705 22.01 180.65 20.85 A 6.087 6.087 0 0 1 179.625 19.34 A 4.987 4.987 0 0 1 179.15 17.2 A 5.917 5.917 0 0 1 179.746 14.634 A 6.976 6.976 0 0 1 179.875 14.375 A 5.625 5.625 0 0 1 181.678 12.366 A 6.858 6.858 0 0 1 182.05 12.125 Q 183.5 11.25 185.55 11.25 A 9.372 9.372 0 0 1 187.369 11.44 Q 188.233 11.611 189.175 11.936 A 17.678 17.678 0 0 1 189.825 12.175 A 15.899 15.899 0 0 1 191.833 13.137 Q 192.786 13.673 193.804 14.384 A 32.348 32.348 0 0 1 195.05 15.3 A 43.187 43.187 0 0 1 196.658 13.667 A 34.413 34.413 0 0 1 197.875 12.55 A 13.356 13.356 0 0 1 199.343 11.43 A 10.37 10.37 0 0 1 200.65 10.7 Q 203.4 11.15 204.575 12.625 A 5.725 5.725 0 0 1 205.389 13.974 A 4.548 4.548 0 0 1 205.75 15.75 Q 205.75 16.05 205.725 16.3 Q 205.7 16.55 205.65 16.8 A 17.389 17.389 0 0 0 201.947 18.852 A 15.32 15.32 0 0 0 200.425 20.125 Q 198.25 22.2 196.4 24.675 A 89.431 89.431 0 0 1 193.428 28.43 A 101.725 101.725 0 0 1 192.35 29.7 A 7.857 7.857 0 0 0 193.114 30.266 Q 193.615 30.59 194.1 30.775 Q 194.824 31.052 195.439 31.093 A 3.168 3.168 0 0 0 195.65 31.1 A 3.204 3.204 0 0 0 196.731 30.925 A 2.76 2.76 0 0 0 197.85 30.175 Q 198.7 29.25 198.7 28 Q 198.7 27.6 198.625 27.2 A 2.142 2.142 0 0 0 198.454 26.681 A 2.713 2.713 0 0 0 198.3 26.4 Q 198.9 26.3 199.475 26.225 Q 200.05 26.15 200.6 26.15 A 8.699 8.699 0 0 1 202.112 26.273 Q 203.781 26.568 204.7 27.575 Q 206 29 206 30.85 Q 206 32.25 205.25 33.65 A 5.977 5.977 0 0 1 203.316 35.777 A 7.144 7.144 0 0 1 203.05 35.95 A 5.863 5.863 0 0 1 201.003 36.724 A 7.986 7.986 0 0 1 199.55 36.85 A 8.343 8.343 0 0 1 197.82 36.656 Q 197.006 36.484 196.114 36.156 A 16.807 16.807 0 0 1 195.225 35.8 A 15.583 15.583 0 0 1 193.195 34.722 Q 191.648 33.76 189.95 32.3 A 27.458 27.458 0 0 1 187.571 34.411 A 30.454 30.454 0 0 1 187.2 34.7 A 26.125 26.125 0 0 1 184.619 36.438 A 29.792 29.792 0 0 1 183.9 36.85 Z M 118.8 12.9 L 118.5 12.75 A 14.129 14.129 0 0 1 118.749 10.035 A 10.431 10.431 0 0 1 119.8 7.05 Q 121.1 4.65 123.25 3.075 Q 125.4 1.5 128.05 0.75 Q 130.7 0 133.4 0 A 18.552 18.552 0 0 1 138.674 0.737 A 17.23 17.23 0 0 1 139.7 1.075 A 13.593 13.593 0 0 1 142.512 2.466 A 11.053 11.053 0 0 1 144.525 4.15 A 6.863 6.863 0 0 1 146.398 8.87 A 8.844 8.844 0 0 1 146.4 9.05 A 7.545 7.545 0 0 1 143.6 14.942 Q 142.183 16.176 140.05 17.15 A 15.372 15.372 0 0 1 142.199 17.794 Q 143.34 18.236 144.214 18.831 A 6.977 6.977 0 0 1 145.55 20 Q 147.3 22 147.3 24.45 A 7.816 7.816 0 0 1 146.751 27.283 A 10.274 10.274 0 0 1 146.025 28.775 A 12.91 12.91 0 0 1 144.072 31.296 A 16.769 16.769 0 0 1 142.4 32.775 A 17.364 17.364 0 0 1 139.266 34.696 A 22.445 22.445 0 0 1 136.725 35.725 Q 133.4 36.85 129.3 36.85 A 19.978 19.978 0 0 1 126.181 36.621 Q 124.543 36.362 123.19 35.809 A 10.464 10.464 0 0 1 121.85 35.15 A 5.597 5.597 0 0 1 119.07 31.076 A 8.674 8.674 0 0 1 118.95 29.6 A 11.081 11.081 0 0 1 118.956 29.219 A 8.155 8.155 0 0 1 118.975 28.875 Q 118.991 28.662 119.019 28.503 A 2.055 2.055 0 0 1 119.05 28.35 A 14.662 14.662 0 0 1 119.252 27.26 Q 119.484 26.214 119.9 24.9 Q 120.55 22.85 121.4 20.525 Q 122.25 18.2 123.05 15.95 Q 123.85 13.7 124.4 11.825 A 19.099 19.099 0 0 0 124.69 10.724 Q 124.923 9.71 124.947 8.971 A 5.149 5.149 0 0 0 124.95 8.8 A 2.977 2.977 0 0 0 124.92 8.358 Q 124.835 7.794 124.507 7.6 A 0.788 0.788 0 0 0 124.1 7.5 Q 123.329 7.5 122.261 8.44 A 9.709 9.709 0 0 0 121.75 8.925 Q 120.35 10.35 118.8 12.9 Z M 9.146 36.454 A 5.08 5.08 0 0 0 10.75 36.7 A 6.187 6.187 0 0 0 11.715 36.623 A 7.461 7.461 0 0 0 13.125 36.25 Q 14.35 35.8 15.25 34.85 Q 15.35 29.9 15.725 25.1 Q 16.1 20.3 16.675 16.125 Q 17.034 13.516 17.384 11.365 A 122.031 122.031 0 0 1 17.8 8.95 Q 19.35 9.15 20.725 9.325 Q 21.584 9.435 22.278 9.476 A 13.136 13.136 0 0 0 23.05 9.5 A 9.508 9.508 0 0 0 23.877 9.466 Q 24.535 9.408 25.087 9.255 A 4.375 4.375 0 0 0 26.3 8.725 A 5.612 5.612 0 0 0 26.676 8.46 A 4.535 4.535 0 0 0 28.05 6.775 Q 28.6 5.6 28.6 4.35 A 6.472 6.472 0 0 0 28.599 4.241 A 5.554 5.554 0 0 0 28 1.775 A 3.792 3.792 0 0 0 27.736 1.332 A 2.726 2.726 0 0 0 26.3 0.25 Q 25.55 1.15 24.125 1.5 Q 22.7 1.85 20.9 1.85 Q 18.7 1.85 16.15 1.5 Q 13.6 1.15 11.125 0.825 A 47.424 47.424 0 0 0 10.968 0.805 Q 9.797 0.655 8.734 0.579 A 29.237 29.237 0 0 0 6.65 0.5 Q 3.9 0.5 2.475 1.4 A 4.145 4.145 0 0 0 1.045 2.945 A 5.913 5.913 0 0 0 0.525 4.275 Q 0.181 5.571 0.062 7.373 A 31.002 31.002 0 0 0 0 9.4 Q 1.15 8.4 2.825 8 A 14.039 14.039 0 0 1 4.606 7.7 A 18.942 18.942 0 0 1 6.6 7.6 Q 7.3 7.6 8.15 7.65 A 31.229 31.229 0 0 1 8.363 7.664 A 34.257 34.257 0 0 1 9.9 7.8 A 398.336 398.336 0 0 0 9.847 8.142 Q 9.469 10.566 9.025 13.6 A 344.84 344.84 0 0 0 8.789 15.242 A 388.411 388.411 0 0 0 8.1 20.375 Q 7.65 23.9 7.325 27.3 A 121.624 121.624 0 0 0 7.056 30.55 A 90.403 90.403 0 0 0 6.9 33.5 Q 6.89 33.807 6.926 34.084 A 2.478 2.478 0 0 0 8.025 35.9 A 4.483 4.483 0 0 0 9.146 36.454 Z M 76.45 26.95 L 76.95 27.15 A 9.58 9.58 0 0 1 76.725 29.276 A 7.125 7.125 0 0 1 75.775 31.575 Q 74.6 33.4 72.75 34.575 Q 70.9 35.75 68.8 36.3 A 17.458 17.458 0 0 1 66.578 36.737 A 13.721 13.721 0 0 1 64.85 36.85 A 12.062 12.062 0 0 1 62.248 36.583 A 8.786 8.786 0 0 1 59.275 35.35 Q 57 33.85 55.85 31.425 Q 54.7 29 54.7 26.2 A 14.436 14.436 0 0 1 55.538 21.407 A 16.584 16.584 0 0 1 55.725 20.9 Q 56.75 18.25 58.75 16.025 Q 60.75 13.8 63.625 12.475 A 14.214 14.214 0 0 1 67.507 11.344 A 18.664 18.664 0 0 1 70.25 11.15 A 14.901 14.901 0 0 1 72.181 11.267 Q 74.416 11.56 75.704 12.588 A 4.642 4.642 0 0 1 75.75 12.625 A 6.331 6.331 0 0 1 76.68 13.55 Q 77.183 14.176 77.395 14.847 A 3.307 3.307 0 0 1 77.55 15.85 A 3.765 3.765 0 0 1 76.863 17.994 Q 76.423 18.645 75.7 19.25 A 5.957 5.957 0 0 1 73.715 20.323 Q 72.269 20.8 70.3 20.8 Q 70.5 20.05 70.625 19.275 A 9.843 9.843 0 0 0 70.735 18.29 A 8.294 8.294 0 0 0 70.75 17.8 A 4.091 4.091 0 0 0 70.676 17.001 Q 70.568 16.46 70.304 16.032 A 2.669 2.669 0 0 0 70.3 16.025 Q 69.893 15.369 68.912 15.307 A 3.347 3.347 0 0 0 68.7 15.3 A 2.686 2.686 0 0 0 67.723 15.495 Q 67.345 15.642 66.952 15.901 A 6.005 6.005 0 0 0 66.475 16.25 Q 65.3 17.2 64.475 19.05 A 8.866 8.866 0 0 0 63.885 20.963 Q 63.709 21.861 63.665 22.896 A 16.594 16.594 0 0 0 63.65 23.6 A 13.199 13.199 0 0 0 63.753 25.304 Q 63.951 26.817 64.525 27.9 A 6.457 6.457 0 0 0 65.389 29.165 A 4.87 4.87 0 0 0 66.8 30.275 Q 68.2 31 69.75 31 A 7.854 7.854 0 0 0 73.462 30.055 A 9.284 9.284 0 0 0 73.7 29.925 Q 75.6 28.85 76.45 26.95 Z M 51.4 27 L 51.75 27.25 A 10.502 10.502 0 0 1 51.559 29.306 A 7.534 7.534 0 0 1 50.675 31.675 Q 49.6 33.5 47.85 34.65 Q 46.1 35.8 44.025 36.325 Q 41.95 36.85 39.9 36.85 Q 36.82 36.85 34.631 35.8 A 8.549 8.549 0 0 1 33.85 35.375 Q 31.45 33.9 30.25 31.475 Q 29.05 29.05 29.05 26.25 A 14.533 14.533 0 0 1 29.807 21.677 A 16.833 16.833 0 0 1 30.075 20.925 Q 31.1 18.25 33.075 16.05 Q 35.05 13.85 37.875 12.5 A 13.824 13.824 0 0 1 42.311 11.257 A 17.196 17.196 0 0 1 44.25 11.15 Q 48.65 11.15 50.675 13.125 A 6.553 6.553 0 0 1 52.379 15.8 A 6.726 6.726 0 0 1 52.7 17.9 Q 52.7 20.3 51.425 22.325 Q 50.15 24.35 48.05 25.575 Q 45.95 26.8 43.45 26.8 Q 42.15 26.8 40.8 26.4 Q 39.45 26 38.15 25.15 A 10.747 10.747 0 0 0 38.413 26.841 Q 38.86 28.666 39.95 29.65 Q 41.5 31.05 43.65 31.05 A 8.239 8.239 0 0 0 46.369 30.578 A 9.445 9.445 0 0 0 46.65 30.475 Q 48.15 29.9 49.425 28.975 Q 50.7 28.05 51.4 27 Z M 175.85 13.65 L 175.95 13.95 A 23.531 23.531 0 0 0 175.5 15.04 Q 175.125 16.013 174.75 17.2 A 58.694 58.694 0 0 0 173.777 20.659 A 65.08 65.08 0 0 0 173.65 21.175 Q 173.15 23.25 172.85 25.225 A 30.547 30.547 0 0 0 172.667 26.64 Q 172.587 27.412 172.562 28.096 A 16.442 16.442 0 0 0 172.55 28.7 A 12.252 12.252 0 0 0 172.571 29.45 Q 172.636 30.504 172.9 30.975 A 1.823 1.823 0 0 0 173.091 31.256 Q 173.379 31.6 173.75 31.6 A 1.287 1.287 0 0 0 174.513 31.337 Q 174.928 31.038 175.3 30.4 L 175.7 30.6 Q 175.7 32.3 174.6 33.7 Q 173.5 35.1 171.85 35.925 A 7.946 7.946 0 0 1 169.994 36.592 A 6.738 6.738 0 0 1 168.55 36.75 Q 166.8 36.75 165.5 35.6 A 3.452 3.452 0 0 1 164.567 34.204 Q 164.352 33.634 164.263 32.924 A 8.646 8.646 0 0 1 164.2 31.85 L 164.2 31.35 Q 164.2 31.1 164.25 30.85 A 17.852 17.852 0 0 1 163.175 32.727 Q 162.106 34.34 160.875 35.275 A 7.906 7.906 0 0 1 159.41 36.169 Q 158.264 36.698 157.109 36.7 A 5.13 5.13 0 0 1 157.1 36.7 A 5.011 5.011 0 0 1 154.444 35.926 A 6.578 6.578 0 0 1 153.8 35.475 Q 152.407 34.375 151.499 32.326 A 12.783 12.783 0 0 1 151.3 31.85 Q 150.46 29.729 150.363 26.827 A 23.12 23.12 0 0 1 150.35 26.05 A 21.494 21.494 0 0 1 150.594 22.738 A 16.286 16.286 0 0 1 151.325 19.8 A 16.746 16.746 0 0 1 152.517 17.154 A 13.114 13.114 0 0 1 153.9 15.15 A 12.82 12.82 0 0 1 155.671 13.404 A 10.189 10.189 0 0 1 157.4 12.275 A 9.405 9.405 0 0 1 159.159 11.575 A 7.187 7.187 0 0 1 161.1 11.3 Q 163.1 11.3 164.7 12.525 Q 166.094 13.593 166.729 15.742 A 10.538 10.538 0 0 1 166.9 16.4 A 27.017 27.017 0 0 0 167.031 15.588 A 19.91 19.91 0 0 0 167.125 14.85 Q 167.2 14.15 167.2 13.9 A 2.19 2.19 0 0 1 167.525 12.792 Q 167.783 12.383 168.244 12.086 A 3.278 3.278 0 0 1 168.575 11.9 A 6.431 6.431 0 0 1 171.08 11.262 A 7.62 7.62 0 0 1 171.5 11.25 Q 172.9 11.25 174.15 11.8 A 3.003 3.003 0 0 1 175.806 13.53 A 3.696 3.696 0 0 1 175.85 13.65 Z M 234.4 13.65 L 234.5 13.95 A 23.531 23.531 0 0 0 234.05 15.04 Q 233.675 16.013 233.3 17.2 A 58.694 58.694 0 0 0 232.327 20.659 A 65.08 65.08 0 0 0 232.2 21.175 Q 231.7 23.25 231.4 25.225 A 30.547 30.547 0 0 0 231.217 26.64 Q 231.137 27.412 231.112 28.096 A 16.442 16.442 0 0 0 231.1 28.7 A 12.252 12.252 0 0 0 231.121 29.45 Q 231.186 30.504 231.45 30.975 A 1.823 1.823 0 0 0 231.641 31.256 Q 231.929 31.6 232.3 31.6 A 1.287 1.287 0 0 0 233.063 31.337 Q 233.478 31.038 233.85 30.4 L 234.25 30.6 Q 234.25 32.3 233.15 33.7 Q 232.05 35.1 230.4 35.925 A 7.946 7.946 0 0 1 228.544 36.592 A 6.738 6.738 0 0 1 227.1 36.75 Q 225.35 36.75 224.05 35.6 A 3.452 3.452 0 0 1 223.117 34.204 Q 222.902 33.634 222.813 32.924 A 8.646 8.646 0 0 1 222.75 31.85 L 222.75 31.35 Q 222.75 31.1 222.8 30.85 A 17.852 17.852 0 0 1 221.725 32.727 Q 220.656 34.34 219.425 35.275 A 7.906 7.906 0 0 1 217.96 36.169 Q 216.814 36.698 215.659 36.7 A 5.13 5.13 0 0 1 215.65 36.7 A 5.011 5.011 0 0 1 212.994 35.926 A 6.578 6.578 0 0 1 212.35 35.475 Q 210.957 34.375 210.049 32.326 A 12.783 12.783 0 0 1 209.85 31.85 Q 209.01 29.729 208.913 26.827 A 23.12 23.12 0 0 1 208.9 26.05 A 21.494 21.494 0 0 1 209.144 22.738 A 16.286 16.286 0 0 1 209.875 19.8 A 16.746 16.746 0 0 1 211.067 17.154 A 13.114 13.114 0 0 1 212.45 15.15 A 12.82 12.82 0 0 1 214.221 13.404 A 10.189 10.189 0 0 1 215.95 12.275 A 9.405 9.405 0 0 1 217.709 11.575 A 7.187 7.187 0 0 1 219.65 11.3 Q 221.65 11.3 223.25 12.525 Q 224.644 13.593 225.279 15.742 A 10.538 10.538 0 0 1 225.45 16.4 A 27.017 27.017 0 0 0 225.581 15.588 A 19.91 19.91 0 0 0 225.675 14.85 Q 225.75 14.15 225.75 13.9 A 2.19 2.19 0 0 1 226.075 12.792 Q 226.333 12.383 226.794 12.086 A 3.278 3.278 0 0 1 227.125 11.9 A 6.431 6.431 0 0 1 229.63 11.262 A 7.62 7.62 0 0 1 230.05 11.25 Q 231.45 11.25 232.7 11.8 A 3.003 3.003 0 0 1 234.356 13.53 A 3.696 3.696 0 0 1 234.4 13.65 Z M 262.6 13.65 L 262.7 13.95 A 23.531 23.531 0 0 0 262.25 15.04 Q 261.875 16.013 261.5 17.2 A 58.694 58.694 0 0 0 260.527 20.659 A 65.08 65.08 0 0 0 260.4 21.175 Q 259.9 23.25 259.6 25.225 A 30.547 30.547 0 0 0 259.417 26.64 Q 259.337 27.412 259.312 28.096 A 16.442 16.442 0 0 0 259.3 28.7 A 12.252 12.252 0 0 0 259.321 29.45 Q 259.386 30.504 259.65 30.975 A 1.823 1.823 0 0 0 259.841 31.256 Q 260.129 31.6 260.5 31.6 A 1.287 1.287 0 0 0 261.263 31.337 Q 261.678 31.038 262.05 30.4 L 262.45 30.6 Q 262.45 32.3 261.35 33.7 Q 260.25 35.1 258.6 35.925 A 7.946 7.946 0 0 1 256.744 36.592 A 6.738 6.738 0 0 1 255.3 36.75 Q 253.55 36.75 252.25 35.6 A 3.452 3.452 0 0 1 251.317 34.204 Q 251.102 33.634 251.013 32.924 A 8.646 8.646 0 0 1 250.95 31.85 L 250.95 31.35 Q 250.95 31.1 251 30.85 A 17.852 17.852 0 0 1 249.925 32.727 Q 248.856 34.34 247.625 35.275 A 7.906 7.906 0 0 1 246.16 36.169 Q 245.014 36.698 243.859 36.7 A 5.13 5.13 0 0 1 243.85 36.7 A 5.011 5.011 0 0 1 241.194 35.926 A 6.578 6.578 0 0 1 240.55 35.475 Q 239.157 34.375 238.249 32.326 A 12.783 12.783 0 0 1 238.05 31.85 Q 237.21 29.729 237.113 26.827 A 23.12 23.12 0 0 1 237.1 26.05 A 21.494 21.494 0 0 1 237.344 22.738 A 16.286 16.286 0 0 1 238.075 19.8 A 16.746 16.746 0 0 1 239.267 17.154 A 13.114 13.114 0 0 1 240.65 15.15 A 12.82 12.82 0 0 1 242.421 13.404 A 10.189 10.189 0 0 1 244.15 12.275 A 9.405 9.405 0 0 1 245.909 11.575 A 7.187 7.187 0 0 1 247.85 11.3 Q 249.85 11.3 251.45 12.525 Q 252.844 13.593 253.479 15.742 A 10.538 10.538 0 0 1 253.65 16.4 A 27.017 27.017 0 0 0 253.781 15.588 A 19.91 19.91 0 0 0 253.875 14.85 Q 253.95 14.15 253.95 13.9 A 2.19 2.19 0 0 1 254.275 12.792 Q 254.533 12.383 254.994 12.086 A 3.278 3.278 0 0 1 255.325 11.9 A 6.431 6.431 0 0 1 257.83 11.262 A 7.62 7.62 0 0 1 258.25 11.25 Q 259.65 11.25 260.9 11.8 A 3.003 3.003 0 0 1 262.556 13.53 A 3.696 3.696 0 0 1 262.6 13.65 Z M 265.25 17.95 L 264.95 17.75 A 2.909 2.909 0 0 1 264.945 17.569 Q 264.945 16.828 265.3 15.85 A 6.755 6.755 0 0 1 266.063 14.373 A 8.319 8.319 0 0 1 266.55 13.725 A 6.718 6.718 0 0 1 268.017 12.42 A 8.204 8.204 0 0 1 268.725 12 A 5.925 5.925 0 0 1 270.516 11.407 A 7.984 7.984 0 0 1 271.85 11.3 Q 274.5 11.3 275.7 12.825 A 5.59 5.59 0 0 1 276.87 15.836 A 7.21 7.21 0 0 1 276.9 16.5 A 10.619 10.619 0 0 1 276.886 17.039 A 11.817 11.817 0 0 1 276.875 17.225 A 9.793 9.793 0 0 1 276.812 17.862 A 8.935 8.935 0 0 1 276.8 17.95 A 25.586 25.586 0 0 1 278.16 15.748 Q 279.333 14.06 280.575 12.975 A 9.777 9.777 0 0 1 281.72 12.105 Q 283.053 11.25 284.25 11.25 A 3.222 3.222 0 0 1 285.209 11.385 A 2.422 2.422 0 0 1 286.6 12.5 A 5.161 5.161 0 0 1 287.245 14.258 A 7.008 7.008 0 0 1 287.35 15.5 A 8.831 8.831 0 0 1 286.969 18.031 A 10.47 10.47 0 0 1 286.725 18.75 A 7.03 7.03 0 0 1 285.654 20.658 A 6.358 6.358 0 0 1 284.875 21.475 A 4.11 4.11 0 0 1 282.157 22.501 Q 282.03 22.504 281.9 22.5 L 281.7 22.4 A 3.562 3.562 0 0 0 281.557 21.503 A 2.569 2.569 0 0 0 280.85 20.35 A 2.89 2.89 0 0 0 280.084 19.825 A 2.442 2.442 0 0 0 279.05 19.6 A 2.802 2.802 0 0 0 277.528 20.064 Q 277.125 20.32 276.739 20.717 A 5.876 5.876 0 0 0 276.525 20.95 Q 275.574 22.043 275.393 23.92 A 9.674 9.674 0 0 0 275.35 24.85 Q 275.35 26.4 275.7 28.2 A 23.359 23.359 0 0 1 275.91 29.448 Q 275.989 30.017 276.023 30.516 A 10.677 10.677 0 0 1 276.05 31.25 Q 276.05 32.75 275.35 34 A 5.86 5.86 0 0 1 274.289 35.386 A 5.249 5.249 0 0 1 273.55 35.975 Q 272.45 36.7 271.15 36.7 A 4.13 4.13 0 0 1 268.446 35.691 A 5.747 5.747 0 0 1 267.95 35.225 A 4.812 4.812 0 0 1 266.828 33.212 Q 266.55 32.253 266.55 31.05 A 13.418 13.418 0 0 1 266.607 29.846 Q 266.681 29.028 266.85 28.1 A 71.749 71.749 0 0 1 267.538 24.779 A 77.965 77.965 0 0 1 267.55 24.725 Q 267.95 23 268.25 21.475 A 20.562 20.562 0 0 0 268.421 20.489 Q 268.49 20.02 268.522 19.615 A 8.43 8.43 0 0 0 268.55 18.95 Q 268.55 17.9 268.175 17.275 Q 267.8 16.65 267.2 16.65 Q 266.25 16.65 265.25 17.95 Z M 130.7 30.75 A 9.006 9.006 0 0 0 132.725 30.531 A 7.235 7.235 0 0 0 134.5 29.875 A 7.781 7.781 0 0 0 136.135 28.733 A 6.604 6.604 0 0 0 137.1 27.625 A 5.665 5.665 0 0 0 137.774 26.342 A 4.484 4.484 0 0 0 138.05 24.8 Q 138.05 22.869 136.279 21.218 A 8.51 8.51 0 0 0 136.15 21.1 Q 134.25 19.4 130.2 19 A 14.205 14.205 0 0 1 129.841 20.807 A 18.455 18.455 0 0 1 129.375 22.3 A 308.794 308.794 0 0 0 128.48 24.841 A 267.89 267.89 0 0 0 128.2 25.65 A 12.156 12.156 0 0 0 127.865 26.794 Q 127.731 27.36 127.68 27.866 A 5.899 5.899 0 0 0 127.65 28.45 A 2.75 2.75 0 0 0 127.741 29.178 A 2.033 2.033 0 0 0 128.3 30.125 A 1.738 1.738 0 0 0 128.845 30.468 Q 129.373 30.687 130.201 30.736 A 8.488 8.488 0 0 0 130.7 30.75 Z M 160.4 30.4 Q 161.7 30.4 163.275 28.075 Q 164.846 25.756 165.994 21.423 A 43.689 43.689 0 0 0 166 21.4 A 72.39 72.39 0 0 1 166.197 20.539 A 79.022 79.022 0 0 1 166.2 20.525 A 8.103 8.103 0 0 0 166.322 19.902 A 7.193 7.193 0 0 0 166.35 19.7 A 13.187 13.187 0 0 0 165.868 18.697 Q 165.351 17.734 164.804 17.196 A 3.406 3.406 0 0 0 164.675 17.075 A 3.891 3.891 0 0 0 164.107 16.652 Q 163.523 16.3 162.95 16.3 A 2.451 2.451 0 0 0 161.599 16.719 Q 161.095 17.046 160.625 17.625 A 9.142 9.142 0 0 0 159.596 19.224 Q 159.198 20 158.885 20.921 A 14.85 14.85 0 0 0 158.875 20.95 A 12.47 12.47 0 0 0 158.201 24.825 A 11.852 11.852 0 0 0 158.2 24.95 A 19.379 19.379 0 0 0 158.25 26.386 Q 158.376 28.08 158.825 29.05 A 3.955 3.955 0 0 0 159.136 29.609 Q 159.673 30.4 160.4 30.4 Z M 218.95 30.4 Q 220.25 30.4 221.825 28.075 Q 223.396 25.756 224.544 21.423 A 43.689 43.689 0 0 0 224.55 21.4 A 72.39 72.39 0 0 1 224.747 20.539 A 79.022 79.022 0 0 1 224.75 20.525 A 8.103 8.103 0 0 0 224.872 19.902 A 7.193 7.193 0 0 0 224.9 19.7 A 13.187 13.187 0 0 0 224.418 18.697 Q 223.901 17.734 223.354 17.196 A 3.406 3.406 0 0 0 223.225 17.075 A 3.891 3.891 0 0 0 222.657 16.652 Q 222.073 16.3 221.5 16.3 A 2.451 2.451 0 0 0 220.149 16.719 Q 219.645 17.046 219.175 17.625 A 9.142 9.142 0 0 0 218.146 19.224 Q 217.748 20 217.435 20.921 A 14.85 14.85 0 0 0 217.425 20.95 A 12.47 12.47 0 0 0 216.751 24.825 A 11.852 11.852 0 0 0 216.75 24.95 A 19.379 19.379 0 0 0 216.8 26.386 Q 216.926 28.08 217.375 29.05 A 3.955 3.955 0 0 0 217.686 29.609 Q 218.223 30.4 218.95 30.4 Z M 247.15 30.4 Q 248.45 30.4 250.025 28.075 Q 251.596 25.756 252.744 21.423 A 43.689 43.689 0 0 0 252.75 21.4 A 72.39 72.39 0 0 1 252.947 20.539 A 79.022 79.022 0 0 1 252.95 20.525 A 8.103 8.103 0 0 0 253.072 19.902 A 7.193 7.193 0 0 0 253.1 19.7 A 13.187 13.187 0 0 0 252.618 18.697 Q 252.101 17.734 251.554 17.196 A 3.406 3.406 0 0 0 251.425 17.075 A 3.891 3.891 0 0 0 250.857 16.652 Q 250.273 16.3 249.7 16.3 A 2.451 2.451 0 0 0 248.349 16.719 Q 247.845 17.046 247.375 17.625 A 9.142 9.142 0 0 0 246.346 19.224 Q 245.948 20 245.635 20.921 A 14.85 14.85 0 0 0 245.625 20.95 A 12.47 12.47 0 0 0 244.951 24.825 A 11.852 11.852 0 0 0 244.95 24.95 A 19.379 19.379 0 0 0 245 26.386 Q 245.126 28.08 245.575 29.05 A 3.955 3.955 0 0 0 245.886 29.609 Q 246.423 30.4 247.15 30.4 Z M 131.25 15.65 A 12.73 12.73 0 0 0 131.527 15.653 Q 133.655 15.653 135.275 14.925 Q 137 14.15 137.975 12.925 A 4.977 4.977 0 0 0 138.597 11.937 A 3.596 3.596 0 0 0 138.95 10.4 Q 138.95 8.7 137.15 7.375 Q 135.35 6.05 131.5 6.05 Q 131.7 7 131.775 7.95 Q 131.85 8.9 131.85 9.8 Q 131.85 11.25 131.675 12.7 Q 131.5 14.15 131.25 15.65 Z M 41.05 23.35 A 4.519 4.519 0 0 0 42.209 23.209 A 3.349 3.349 0 0 0 43.65 22.425 Q 44.65 21.5 45.15 20.25 Q 45.65 19 45.65 18.05 A 3.36 3.36 0 0 0 45.526 17.116 A 2.679 2.679 0 0 0 45 16.125 A 2.125 2.125 0 0 0 43.582 15.373 A 3.062 3.062 0 0 0 43.2 15.35 A 2.954 2.954 0 0 0 42.349 15.484 Q 41.989 15.592 41.605 15.788 A 6.107 6.107 0 0 0 41.225 16 Q 40.15 16.65 39.3 18.225 A 7.384 7.384 0 0 0 38.767 19.515 Q 38.36 20.806 38.2 22.6 Q 39.4 23.163 40.403 23.303 A 4.66 4.66 0 0 0 41.05 23.35 Z" vector-effect="non-scaling-stroke"/></g></svg>